<svg width="24" height="24" viewBox="0 0 24 24" fill="none" xmlns="http://www.w3.org/2000/svg">
<path d="M12 2C6.48 2 2 6.48 2 12C2 17.52 6.48 22 12 22C17.52 22 22 17.52 22 12C22 6.48 17.52 2 12 2ZM12 4C16.42 4 20 7.58 20 12C20 16.42 16.42 20 12 20C7.58 20 4 16.42 4 12C4 7.58 7.58 4 12 4ZM8.5 7.5C7.67 7.5 7 8.17 7 9C7 9.83 7.67 10.5 8.5 10.5C9.33 10.5 10 9.83 10 9C10 8.17 9.33 7.5 8.5 7.5ZM15.5 7.5C14.67 7.5 14 8.17 14 9C14 9.83 14.67 10.5 15.5 10.5C16.33 10.5 17 9.83 17 9C17 8.17 16.33 7.5 15.5 7.5ZM12 13C9.5 13 7.5 14.5 7 16.5H17C16.5 14.5 14.5 13 12 13Z" fill="currentColor"/>
</svg>
