<svg viewBox="0 0 30 30" fill="none" xmlns="http://www.w3.org/2000/svg">
<path d="M23.9541 0.569864C26.1996 0.00437233 28.2977 1.58084 28.5615 3.77006L28.582 3.99076L28.6152 4.65092C28.6415 5.34702 28.643 6.13921 28.582 6.92631C28.5317 7.57524 28.4285 8.3376 28.209 9.08158C28.8343 10.5856 29.1806 12.2242 29.1807 13.9371C29.1802 21.5425 22.5303 27.3752 14.7568 27.3755C13.7054 27.3755 12.6788 27.2681 11.6895 27.0679L9.71191 28.4644H9.71094C7.61019 29.9463 4.71444 28.4427 4.71387 25.8746V23.5835C2.04223 21.1682 0.332257 17.7595 0.332031 13.9371C0.332063 12.2248 0.677696 10.5866 1.30273 9.08256C1.08305 8.33865 0.980127 7.57621 0.929688 6.92729C0.848153 5.8777 0.876704 4.81941 0.928711 3.99076L0.949219 3.76908C1.21375 1.57883 3.31367 0.00471693 5.55762 0.569864L5.78223 0.63334L6.22266 0.778848C6.89015 1.00932 7.72046 1.34776 8.50391 1.8267C10.4012 0.974876 12.5236 0.498575 14.7568 0.498575C16.9896 0.498672 19.1105 0.976315 21.0068 1.82768C21.9746 1.23585 23.014 0.858797 23.7295 0.63334L23.9541 0.569864ZM26.2363 4.13822C26.1784 3.21554 25.3173 2.59782 24.4355 2.87553C23.3779 3.20878 22.0671 3.7525 21.3242 4.54252L21.2969 4.564C21.2769 4.57439 21.2535 4.57777 21.2314 4.57377L21.1992 4.56205C19.4511 3.54669 17.401 2.92925 15.1992 2.856L14.7568 2.84916C12.3868 2.84916 10.1775 3.47857 8.3125 4.56205L8.28027 4.57377C8.24717 4.57992 8.21174 4.56805 8.1875 4.54252C7.44477 3.7526 6.1337 3.20881 5.07617 2.87553C4.19434 2.59767 3.33235 3.21547 3.27441 4.13822C3.17788 5.67653 3.18097 7.89265 3.83008 9.11772C3.84533 9.14685 3.84609 9.1822 3.83105 9.21147L3.69727 9.48197C3.04517 10.8453 2.68265 12.3525 2.68262 13.9371L2.6875 14.2564C2.78916 17.5494 4.45455 20.4833 7.02539 22.4537C7.04959 22.4724 7.06445 22.5021 7.06445 22.5328V25.8746C7.06499 26.4971 7.72246 26.8771 8.25195 26.607L8.35645 26.5445L11.1641 24.5621C11.1882 24.5452 11.2187 24.5405 11.2471 24.5484C12.2186 24.819 13.2426 24.9817 14.3008 25.0181L14.7568 25.0259C21.3203 25.0256 26.6605 20.2143 26.8262 14.2232L26.8301 13.9371C26.83 12.3521 26.4669 10.8446 25.8145 9.481L25.6807 9.21049C25.6656 9.18114 25.6663 9.14593 25.6816 9.11674C26.3303 7.89151 26.3328 5.67619 26.2363 4.13822Z" fill="#FF4A1D"/>
<path fill-rule="evenodd" clip-rule="evenodd" d="M16.8665 15.4785C17.2503 15.4785 17.5614 15.7896 17.5614 16.1734C17.5614 17.1247 16.8746 17.6788 16.3144 17.9467C15.7416 18.2206 15.0668 18.3284 14.5199 18.3284C13.973 18.3284 13.2982 18.2206 12.7254 17.9467C12.1653 17.6788 11.4785 17.1247 11.4785 16.1734C11.4785 15.7896 11.7896 15.4785 12.1734 15.4785L12.6044 15.4785C12.9799 15.4785 13.2835 15.7842 13.2811 16.1596C13.3451 16.2393 13.3725 16.2531 13.505 16.3165C13.7773 16.4467 14.1715 16.5214 14.5199 16.5214C14.8684 16.5214 15.2626 16.4467 15.5349 16.3165C15.6674 16.2531 15.7367 16.1865 15.7588 16.1596C15.7564 15.7842 16.06 15.4785 16.4355 15.4785L16.8665 15.4785Z" fill="#FF4A1D"/>
<circle cx="9.29026" cy="12.8694" r="1.59885" fill="#FF4A1D"/>
<circle cx="19.7531" cy="12.8694" r="1.59885" fill="#FF4A1D"/>
</svg>
