<svg width="30" height="30" viewBox="2.25 1.5 25.5 27.5" fill="none" xmlns="http://www.w3.org/2000/svg">
<g filter="url(#filter0_d_2058_6529)">
<path d="M4.5 9C4.5 5.68629 7.18629 3 10.5 3H19.5C22.8137 3 25.5 5.68629 25.5 9V18C25.5 21.3137 22.8137 24 19.5 24H10.5C7.18629 24 4.5 21.3137 4.5 18V9Z" fill="white"/>
<path d="M19.5 2.25C23.2279 2.25 26.25 5.27208 26.25 9V18C26.25 21.7279 23.2279 24.75 19.5 24.75H10.5C6.77208 24.75 3.75 21.7279 3.75 18V9C3.75 5.27208 6.77208 2.25 10.5 2.25H19.5Z" stroke="#D4D4D4" stroke-width="1.5"/>
</g>
<defs>
<filter id="filter0_d_2058_6529" x="0" y="0" width="30" height="30" filterUnits="userSpaceOnUse" color-interpolation-filters="sRGB">
<feFlood flood-opacity="0" result="BackgroundImageFix"/>
<feColorMatrix in="SourceAlpha" type="matrix" values="0 0 0 0 0 0 0 0 0 0 0 0 0 0 0 0 0 0 127 0" result="hardAlpha"/>
<feOffset dy="1.5"/>
<feGaussianBlur stdDeviation="1.5"/>
<feComposite in2="hardAlpha" operator="out"/>
<feColorMatrix type="matrix" values="0 0 0 0 0 0 0 0 0 0 0 0 0 0 0 0 0 0 0.05 0"/>
<feBlend mode="normal" in2="BackgroundImageFix" result="effect1_dropShadow_2058_6529"/>
<feBlend mode="normal" in="SourceGraphic" in2="effect1_dropShadow_2058_6529" result="shape"/>
</filter>
</defs>
</svg>
