<?xml version="1.0" standalone="no"?><!DOCTYPE svg PUBLIC "-//W3C//DTD SVG 1.1//EN" "http://www.w3.org/Graphics/SVG/1.1/DTD/svg11.dtd"><svg t="1775535300072" class="icon" viewBox="0 0 1024 1024" version="1.1" xmlns="http://www.w3.org/2000/svg" p-id="11067" width="256" height="256" xmlns:xlink="http://www.w3.org/1999/xlink"><path d="M512 204.8a307.2 307.2 0 1 0 0 614.4 307.2 307.2 0 0 0 0-614.4z m110.2848 464.9984a25.6512 25.6512 0 0 1-36.352 0L495.104 578.4576c-6.7584-6.8096-6.144-16.2816-6.144-30.72 0-14.4896-3.328-181.8112-3.328-181.8112 0-14.336 11.52-25.9584 25.6512-25.9584 14.1824 0 25.6512 11.6224 25.6512 25.9584v181.76c0 0.768 85.504 85.5552 85.504 85.5552a26.0096 26.0096 0 0 1-0.1536 36.5568z" fill="#FFF" p-id="11068"></path></svg>