<svg width="14" height="14" viewBox="0 0 14 14" fill="none" xmlns="http://www.w3.org/2000/svg">
<path d="M7.0013 12.8307C8.61212 12.8307 10.0705 12.1778 11.1261 11.1222C12.1817 10.0665 12.8346 8.60821 12.8346 6.9974C12.8346 5.38658 12.1817 3.92825 11.1261 2.8726C10.0705 1.81698 8.61212 1.16406 7.0013 1.16406C5.39049 1.16406 3.93215 1.81698 2.87651 2.8726C1.82089 3.92825 1.16797 5.38658 1.16797 6.9974C1.16797 8.60821 1.82089 10.0665 2.87651 11.1222C3.93215 12.1778 5.39049 12.8307 7.0013 12.8307Z" fill="white"/>
<path fill-rule="evenodd" clip-rule="evenodd" d="M6.9987 10.7943C7.4014 10.7943 7.72786 10.4678 7.72786 10.0651C7.72786 9.6624 7.4014 9.33594 6.9987 9.33594C6.59599 9.33594 6.26953 9.6624 6.26953 10.0651C6.26953 10.4678 6.59599 10.7943 6.9987 10.7943Z" fill="#83858C"/>
<path d="M7 3.5V8.16667V3.5Z" fill="#83858C"/>
<path d="M7 3.5V8.16667" stroke="#83858C" stroke-width="1.1375" stroke-linecap="round" stroke-linejoin="round"/>
</svg>
