<svg xmlns="http://www.w3.org/2000/svg" width="24" height="24" viewBox="0 0 24 24" fill="none">
  <path
    fill="currentColor"
    d="M12.04 2C6.58 2 2 6.58 2 12.06c0 1.75.46 3.45 1.32 4.95L2 22l5.07-1.33a9.96 9.96 0 005.01 1.35h.01c5.46 0 9.91-4.45 9.91-9.91S17.5 2 12.04 2zm0 17.87h-.01a7.9 7.9 0 01-4.04-1.11l-.29-.17-3 .79.8-2.92-.18-.29a7.92 7.92 0 01-1.22-4.23c0-4.38 3.56-7.94 7.94-7.94s7.94 3.56 7.94 7.94-3.56 7.94-7.94 7.94zm4.46-5.89c-.24-.12-1.43-.71-1.65-.79-.22-.08-.38-.12-.54.12-.16.24-.62.79-.76.95-.14.16-.28.18-.52.06-.24-.12-1.02-.38-1.94-1.21-.72-.64-1.2-1.43-1.34-1.67-.14-.24-.02-.37.1-.49.11-.11.24-.29.36-.43.12-.14.16-.24.24-.4.08-.16.04-.3-.02-.42-.06-.12-.54-1.31-.74-1.79-.2-.48-.41-.41-.55-.42-.14-.01-.3-.02-.46.01-.16.03-.42.15-.64.37-.22.22-.85.83-.85 2.02 0 1.19.87 2.34.99 2.5.12.16 1.71 2.62 4.15 3.69.58.25 1.04.4 1.39.51.58.19 1.11.16 1.53.1.47-.07 1.43-.58 1.63-1.15.2-.57.21-1.06.14-1.14-.06-.08-.22-.15-.46-.27z"
  />
</svg>
